<!--?xml version="1.0" standalone="no"?-->

<svg version="1.0" xmlns="http://www.w3.org/2000/svg" width="300.000000pt" height="300.000000pt" viewBox="0 0 300.000000 300.000000" preserveAspectRatio="xMidYMid meet">
<g transform="translate(0.000000,300.000000) scale(0.100000,-0.100000)" fill="#010101" stroke="none">





</g>
<g transform="translate(0.000000,300.000000) scale(0.100000,-0.100000)" fill="#91CAAA" stroke="none">
<path class="node" id="node6" d="M1159 2971 c-27 -27 -29 -36 -30 -103 0 -40 -1 -89 -1 -108 -1 -66 2
-77 27 -104 17 -18 34 -26 59 -26 82 0 96 28 96 190 l0 122 -31 29 c-41 38
-81 38 -120 0z"></path>
<path class="node" id="node7" d="M379 2655 c-32 -18 -52 -63 -44 -98 8 -29 164 -187 196 -199 51 -19
113 29 113 88 0 31 -11 46 -89 124 -97 96 -129 112 -176 85z"></path>
<path class="node" id="node8" d="M1975 2658 c-32 -17 -155 -140 -172 -172 -34 -65 21 -144 92 -131 36
7 180 144 201 192 32 74 -50 150 -121 111z"></path>
<path class="node" id="node9" d="M1107 2425 c-297 -56 -506 -286 -542 -596 -7 -68 8 -171 40 -262 26
-76 29 -72 -54 -82 -71 -8 -191 -55 -261 -101 -168 -111 -290 -338 -290 -539
0 -81 31 -209 70 -290 55 -113 176 -237 285 -292 106 -53 165 -67 295 -67 96
-1 138 3 181 18 l57 18 53 -42 c135 -107 377 -189 557 -190 79 0 244 28 307
53 80 32 209 102 256 138 l51 41 57 -18 c43 -15 85 -19 181 -18 110 0 134 3
198 27 135 50 215 105 299 207 65 79 105 159 132 267 27 103 27 193 0 296 -69
271 -278 460 -551 497 -46 7 -102 9 -125 5 l-42 -6 -88 89 c-89 91 -169 151
-255 193 -44 21 -48 26 -48 59 0 59 -39 190 -78 264 -23 44 -65 98 -112 145
-154 155 -367 224 -573 186z m215 -186 c64 -13 152 -59 207 -106 64 -54 129
-161 146 -240 l6 -32 -125 6 c-136 7 -241 -5 -341 -39 -128 -43 -262 -124
-352 -211 -29 -28 -54 -49 -56 -46 -66 88 -74 261 -20 396 22 53 44 84 98 138
124 125 269 169 437 134z m283 -560 c203 -28 397 -150 512 -323 26 -39 48 -72
49 -74 1 -1 21 4 45 12 69 24 214 21 286 -6 167 -63 275 -191 309 -366 65
-342 -292 -645 -615 -521 -30 11 -64 27 -75 35 -32 22 -43 18 -106 -44 -160
-155 -393 -230 -610 -198 -170 26 -309 96 -425 214 -46 46 -59 50 -91 27 -91
-63 -261 -78 -383 -34 -107 39 -216 135 -264 232 -15 31 -34 90 -43 131 -14
68 -14 84 0 156 33 176 148 312 314 369 76 26 208 29 272 6 56 -20 54 -20 72
18 25 50 123 163 186 213 74 59 221 130 297 143 132 23 167 25 270 10z"></path>
<path class="node" id="node10" d="M158 1872 c-105 -3 -107 -3 -132 -33 -34 -41 -33 -79 3 -118 l29 -31
122 0 c162 0 190 14 190 96 0 36 -38 84 -66 84 -7 0 -18 1 -26 3 -7 1 -61 1
-120 -1z"></path>
<path class="node" id="node11" d="M2229 1870 c-77 -3 -122 -10 -133 -19 -23 -19 -35 -71 -23 -104 15
-46 52 -57 185 -57 112 0 121 1 145 24 37 34 43 69 20 108 -26 45 -60 54 -194
48z"></path>
</g>
</svg>